<svg width="1653" height="993" viewBox="0 0 1653 993" fill="none" xmlns="http://www.w3.org/2000/svg">
<rect width="1653" height="993" fill="#2A2A2A"/>
<path d="M739 425L716 426.5V450H741L739 425Z" stroke="white" stroke-width="6"/>
<path d="M875 203.5L856.5 206C856.5 246.167 857.2 329.1 860 339.5C862.8 349.9 871.167 354.167 875 355L923.5 352.5V360H951.5V335.5H879.5L875 203.5Z" fill="white" stroke="white" stroke-width="6"/>
<path d="M1243.63 99.0453L136.891 104.394C124.951 104.452 115.461 114.44 116.015 126.368L130.571 439.974C131.091 451.181 140.329 460 151.548 460H221.166C232.501 460 241.79 468.994 242.156 480.323L249.821 717.941C250.195 729.56 259.939 738.664 271.556 738.251L356.51 735.229C367.905 734.824 377.541 743.585 378.219 754.967L385.324 874.249C385.984 885.342 395.173 894 406.286 894H1535.59C1549.86 894 1559.97 880.074 1555.56 866.504L1336.89 194.277C1335.97 191.458 1334.47 188.864 1332.48 186.668L1259.29 105.94C1255.29 101.523 1249.59 99.0165 1243.63 99.0453Z" stroke="#FF0000" stroke-width="3"/>
<rect x="164" y="168.502" width="112" height="36" rx="5" transform="rotate(-1.79195 164 168.502)" fill="white"/>
<rect x="162" y="143.227" width="39.232" height="14.6587" rx="3" transform="rotate(-1.79195 162 143.227)" fill="white"/>
<rect x="238" y="141.227" width="39.232" height="14.6587" rx="3" transform="rotate(-1.79195 238 141.227)" fill="white"/>
<rect x="311.033" y="177.955" width="39.232" height="14.6587" rx="3" transform="rotate(-1.49685 311.033 177.955)" fill="white"/>
<rect x="377.037" y="177.295" width="39.232" height="14.6587" rx="3" transform="rotate(-1.49685 377.037 177.295)" fill="white"/>
<rect x="522" y="172.403" width="39.4659" height="15.0772" rx="3" transform="rotate(-2.13421 522 172.403)" fill="white"/>
<rect x="445.814" y="170.591" width="42.1174" height="20.7374" rx="3" transform="rotate(-3.12681 445.814 170.591)" fill="white"/>
<rect x="384.086" y="122.676" width="206.892" height="21.1321" rx="3" transform="rotate(-2.23192 384.086 122.676)" fill="white"/>
<rect x="614" y="116.057" width="129.929" height="19.6395" rx="3" transform="rotate(-2.23192 614 116.057)" fill="white"/>
<rect x="890" y="115.06" width="348.576" height="12.2392" rx="3" transform="rotate(-2.23192 890 115.06)" fill="white"/>
<rect x="498" y="479.481" width="27.1534" height="20.7374" rx="3" transform="rotate(-3.12681 498 479.481)" fill="white"/>
<rect x="544" y="478.481" width="27.1534" height="20.7374" rx="3" transform="rotate(-3.12681 544 478.481)" fill="white"/>
<rect x="590" y="476.481" width="27.1534" height="20.7374" rx="3" transform="rotate(-3.12681 590 476.481)" fill="white"/>
<rect x="636" y="475.481" width="27.1534" height="20.7374" rx="3" transform="rotate(-3.12681 636 475.481)" fill="white"/>
<rect x="680" y="472.481" width="27.1534" height="20.7374" rx="3" transform="rotate(-3.12681 680 472.481)" fill="white"/>
<rect x="724" y="471.481" width="27.1534" height="20.7374" rx="3" transform="rotate(-3.12681 724 471.481)" fill="white"/>
<rect x="770" y="470.481" width="27.1534" height="20.7374" rx="3" transform="rotate(-3.12681 770 470.481)" fill="white"/>
<rect x="815" y="467.481" width="27.1534" height="20.7374" rx="3" transform="rotate(-3.12681 815 467.481)" fill="white"/>
<rect x="861" y="467.481" width="27.1534" height="20.7374" rx="3" transform="rotate(-3.12681 861 467.481)" fill="white"/>
<rect x="906" y="466.481" width="27.1534" height="20.7374" rx="3" transform="rotate(-3.12681 906 466.481)" fill="white"/>
<rect x="1001" y="462.481" width="27.1534" height="20.7374" rx="3" transform="rotate(-3.12681 1001 462.481)" fill="white"/>
<rect x="1050" y="461.481" width="27.1534" height="20.7374" rx="3" transform="rotate(-3.12681 1050 461.481)" fill="white"/>
<rect x="1096" y="458.481" width="27.1534" height="20.7374" rx="3" transform="rotate(-3.12681 1096 458.481)" fill="white"/>
<path d="M438 838L403 840L401 783.5L407 780.5L405 761L409.5 755H425L429 761V780.5H436L438 838Z" fill="white" stroke="white" stroke-width="6"/>
<path d="M502 838L467 840L465 783.5L471 780.5L469 761L473.5 755H489L493 761V780.5H500L502 838Z" fill="white" stroke="white" stroke-width="6"/>
<path d="M560 835L525 837L523 780.5L529 777.5L527 758L531.5 752H547L551 758V777.5H558L560 835Z" fill="white" stroke="white" stroke-width="6"/>
<path d="M624 832L589 834L587 777.5L593 774.5L591 755L595.5 749H611L615 755V774.5H622L624 832Z" fill="white" stroke="white" stroke-width="6"/>
<path d="M682 827L647 829L645 772.5L651 769.5L649 750L653.5 744H669L673 750V769.5H680L682 827Z" fill="white" stroke="white" stroke-width="6"/>
<path d="M743 830L708 832L706 775.5L712 772.5L710 753L714.5 747H730L734 753V772.5H741L743 830Z" fill="white" stroke="white" stroke-width="6"/>
<path d="M802 827L767 829L765 772.5L771 769.5L769 750L773.5 744H789L793 750V769.5H800L802 827Z" fill="white" stroke="white" stroke-width="6"/>
<path d="M866 825L831 827L829 770.5L835 767.5L833 748L837.5 742H853L857 748V767.5H864L866 825Z" fill="white" stroke="white" stroke-width="6"/>
<path d="M485.5 861.5V842L500.5 841L501 861.5H485.5Z" fill="white" stroke="white" stroke-width="6"/>
<path d="M601 857.5V838L616 837L616.5 857.5H601Z" fill="white" stroke="white" stroke-width="6"/>
<path d="M722 853.5V834L737 833L737.5 853.5H722Z" fill="white" stroke="white" stroke-width="6"/>
<rect x="398" y="483.481" width="27.1534" height="20.7374" rx="3" transform="rotate(-3.12681 398 483.481)" fill="white"/>
<rect x="355" y="484.481" width="27.1534" height="20.7374" rx="3" transform="rotate(-3.12681 355 484.481)" fill="white"/>
<rect x="309" y="486.481" width="27.1534" height="20.7374" rx="3" transform="rotate(-3.12681 309 486.481)" fill="white"/>
<rect x="259" y="488.481" width="27.1534" height="20.7374" rx="3" transform="rotate(-3.12681 259 488.481)" fill="white"/>
<rect x="260" y="532.481" width="27.1534" height="20.7374" rx="3" transform="rotate(-3.12681 260 532.481)" fill="white"/>
<rect x="258.402" y="654.379" width="89.1164" height="21.7401" rx="3" transform="rotate(-36.5857 258.402 654.379)" fill="white"/>
<rect x="260" y="712.116" width="89.1164" height="21.7401" rx="3" transform="rotate(-36.5857 260 712.116)" fill="white"/>
<rect x="426" y="728.481" width="39.7721" height="15.2761" rx="3" transform="rotate(-3.12681 426 728.481)" fill="white"/>
<rect x="494" y="726.169" width="39.7721" height="15.2761" rx="3" transform="rotate(-3.12681 494 726.169)" fill="white"/>
<rect x="555" y="724.169" width="39.7721" height="15.2761" rx="3" transform="rotate(-3.12681 555 724.169)" fill="white"/>
<rect x="619" y="722.169" width="39.7721" height="15.2761" rx="3" transform="rotate(-3.12681 619 722.169)" fill="white"/>
<rect x="683" y="720.169" width="39.7721" height="15.2761" rx="3" transform="rotate(-3.12681 683 720.169)" fill="white"/>
<rect x="747" y="718.169" width="39.7721" height="15.2761" rx="3" transform="rotate(-3.12681 747 718.169)" fill="white"/>
<rect x="815" y="715.169" width="39.7721" height="15.2761" rx="3" transform="rotate(-3.12681 815 715.169)" fill="white"/>
<rect x="491" y="275.297" width="72.6515" height="26.7053" rx="3" transform="rotate(-3.12681 491 275.297)" fill="white"/>
<rect x="589" y="169.297" width="38.14" height="16.8081" rx="3" transform="rotate(-3.12681 589 169.297)" fill="white"/>
<rect x="650" y="168.08" width="39.8369" height="15.6207" rx="3" transform="rotate(-3.12681 650 168.08)" fill="white"/>
<rect x="717" y="165.173" width="39.8369" height="15.6207" rx="3" transform="rotate(-3.12681 717 165.173)" fill="white"/>
<rect x="782" y="157.336" width="43.7513" height="24.0867" rx="3" transform="rotate(-3.12681 782 157.336)" fill="white"/>
<rect x="804" y="210.386" width="30.5036" height="33.6349" rx="3" transform="rotate(-3.12681 804 210.386)" fill="white"/>
<path d="M781 116.5L762.5 118V130H783L781 116.5Z" stroke="white" stroke-width="6"/>
<path d="M873 109.5L819 111.5V128L875.5 126.5L873 109.5Z" stroke="white" stroke-width="6"/>
<path d="M914.5 209.5H889V221.5H916L914.5 209.5Z" stroke="white" stroke-width="6"/>
<path d="M828 276.5H811L812.5 304H829.5L828 276.5Z" stroke="white" stroke-width="6"/>
<path d="M872 443.5L819 402L829.5 389.5L882.5 430L872 443.5Z" stroke="white" stroke-width="6"/>
<path d="M789 419L780.5 428.5L781.5 440L789 448H801L810.5 439V427L801 417.5L789 419Z" stroke="white" stroke-width="6"/>
<path d="M795 418L796.5 447" stroke="white" stroke-width="6"/>
<rect x="882" y="159.386" width="28.8855" height="21.2207" rx="3" transform="rotate(-3.12681 882 159.386)" fill="white"/>
<rect x="1096.5" y="306.841" width="36.8244" height="26.047" rx="3" transform="rotate(-109.842 1096.5 306.841)" fill="white"/>
<rect x="1137.5" y="291.479" width="36.8244" height="26.047" rx="3" transform="rotate(-109.842 1137.5 291.479)" fill="white"/>
<rect x="1051.5" y="325.479" width="36.8244" height="26.047" rx="3" transform="rotate(-109.842 1051.5 325.479)" fill="white"/>
<rect x="1071.5" y="379.479" width="36.8244" height="26.047" rx="3" transform="rotate(-109.842 1071.5 379.479)" fill="white"/>
<rect x="1090.5" y="435.479" width="36.8244" height="26.047" rx="3" transform="rotate(-109.842 1090.5 435.479)" fill="white"/>
<rect x="1050.12" y="437.936" width="39.8921" height="15.2377" rx="3" transform="rotate(-93.0416 1050.12 437.936)" fill="white"/>
<path d="M955.5 429.5C877.5 421.9 831 369.667 817.5 344.5C817.167 344 815.1 344.2 809.5 349C851.1 416.2 924.167 436.667 955.5 438.5V429.5Z" fill="white" stroke="white" stroke-width="6"/>
<rect x="1115.5" y="362.479" width="36.8244" height="26.047" rx="3" transform="rotate(-109.842 1115.5 362.479)" fill="white"/>
<rect x="1137.5" y="422.479" width="36.8244" height="26.047" rx="3" transform="rotate(-109.842 1137.5 422.479)" fill="white"/>
<rect x="1191.5" y="444.479" width="36.8244" height="26.047" rx="3" transform="rotate(-109.842 1191.5 444.479)" fill="white"/>
<rect x="1159.5" y="489.479" width="36.8244" height="26.047" rx="3" transform="rotate(-109.842 1159.5 489.479)" fill="white"/>
<rect x="1212.5" y="500.479" width="36.8244" height="26.047" rx="3" transform="rotate(-109.842 1212.5 500.479)" fill="white"/>
<rect x="1234.5" y="560.479" width="36.8244" height="26.047" rx="3" transform="rotate(-109.842 1234.5 560.479)" fill="white"/>
<rect x="1256.5" y="622.479" width="36.8244" height="26.047" rx="3" transform="rotate(-109.842 1256.5 622.479)" fill="white"/>
<rect x="1311.87" y="588.195" width="21.3354" height="106.502" rx="3" transform="rotate(-109.842 1311.87 588.195)" fill="white"/>
<rect x="1329.24" y="634.219" width="21.3354" height="106.502" rx="3" transform="rotate(-109.842 1329.24 634.219)" fill="white"/>
<rect x="1349.9" y="655.144" width="12.6647" height="38.51" rx="3" transform="rotate(-103.234 1349.9 655.144)" fill="white"/>
<rect x="1409.9" y="639.144" width="12.6647" height="38.51" rx="3" transform="rotate(-103.234 1409.9 639.144)" fill="white"/>
<rect x="1300.24" y="539.219" width="21.3354" height="106.502" rx="3" transform="rotate(-109.842 1300.24 539.219)" fill="white"/>
<rect x="1279.24" y="493.219" width="21.3354" height="106.502" rx="3" transform="rotate(-109.842 1279.24 493.219)" fill="white"/>
<rect x="1250.24" y="410.219" width="21.3354" height="106.502" rx="3" transform="rotate(-109.842 1250.24 410.219)" fill="white"/>
<rect x="1233.24" y="364.219" width="21.3354" height="106.502" rx="3" transform="rotate(-109.842 1233.24 364.219)" fill="white"/>
<rect x="1217.24" y="319.219" width="21.3354" height="106.502" rx="3" transform="rotate(-109.842 1217.24 319.219)" fill="white"/>
<rect x="1201.24" y="270.219" width="21.3354" height="106.502" rx="3" transform="rotate(-109.842 1201.24 270.219)" fill="white"/>
<rect x="1226.5" y="630.479" width="36.8244" height="12.7327" rx="3" transform="rotate(-109.842 1226.5 630.479)" fill="white"/>
<rect x="1234.5" y="688.479" width="36.8244" height="26.047" rx="3" transform="rotate(-109.842 1234.5 688.479)" fill="white"/>
<rect x="1275.5" y="677.479" width="36.8244" height="26.047" rx="3" transform="rotate(-109.842 1275.5 677.479)" fill="white"/>
<rect x="1194.5" y="573.479" width="36.8244" height="26.047" rx="3" transform="rotate(-109.842 1194.5 573.479)" fill="white"/>
<rect x="1159.59" y="360.598" width="51.8336" height="26.047" rx="3" transform="rotate(-109.842 1159.59 360.598)" fill="white"/>
<rect x="930" y="158.576" width="28.8855" height="21.2207" rx="3" transform="rotate(-3.12681 930 158.576)" fill="white"/>
<rect x="978" y="156.576" width="28.8855" height="21.2207" rx="3" transform="rotate(-3.12681 978 156.576)" fill="white"/>
<rect x="1287.86" y="418.452" width="28.8855" height="21.2207" rx="3" transform="rotate(-18.3041 1287.86 418.452)" fill="white"/>
<rect x="1256" y="428.836" width="24.9519" height="14.699" rx="3" transform="rotate(-18.3041 1256 428.836)" fill="white"/>
<rect x="1328" y="404.072" width="28.8855" height="21.2207" rx="3" transform="rotate(-18.3041 1328 404.072)" fill="white"/>
<rect x="1074" y="147.576" width="28.8855" height="21.2207" rx="3" transform="rotate(-3.12681 1074 147.576)" fill="white"/>
<rect x="1120" y="147.576" width="28.8855" height="21.2207" rx="3" transform="rotate(-3.12681 1120 147.576)" fill="white"/>
<rect x="1172" y="144.576" width="61.9058" height="21.2207" rx="3" transform="rotate(-3.12681 1172 144.576)" fill="white"/>
<path d="M1016 242H985L987 253H1004.5L1009 430H990V439H1021.5L1016 242Z" fill="white" stroke="white" stroke-width="6"/>
<rect x="694" y="231.173" width="39.8369" height="57.7746" rx="3" transform="rotate(-3.12681 694 231.173)" fill="white"/>
<rect x="760" y="211.173" width="24.5985" height="73.7244" rx="3" transform="rotate(-3.12681 760 211.173)" fill="white"/>
<rect x="766" y="316.342" width="24.5985" height="73.7244" rx="3" transform="rotate(-3.12681 766 316.342)" fill="white"/>
<rect x="697" y="319.173" width="39.8369" height="86.5194" rx="3" transform="rotate(-3.12681 697 319.173)" fill="white"/>
<rect x="165" y="217.502" width="112" height="36" rx="5" transform="rotate(-1.79195 165 217.502)" fill="white"/>
<rect x="168" y="266.502" width="112" height="36" rx="5" transform="rotate(-1.79195 168 266.502)" fill="white"/>
<rect x="169" y="315.502" width="112" height="36" rx="5" transform="rotate(-1.79195 169 315.502)" fill="white"/>
<rect x="170" y="364.502" width="112" height="36" rx="5" transform="rotate(-1.79195 170 364.502)" fill="white"/>
<rect x="349.878" y="215.775" width="246.053" height="40.9214" rx="5" transform="rotate(87.374 349.878 215.775)" fill="white"/>
<rect x="420.878" y="223" width="235.219" height="40.9214" rx="5" transform="rotate(87.374 420.878 223)" fill="white"/>
<rect x="460.139" y="519" width="179.584" height="21.1606" rx="5" transform="rotate(87.374 460.139 519)" fill="white"/>
<rect x="386.139" y="522" width="179.584" height="21.1606" rx="5" transform="rotate(87.374 386.139 522)" fill="white"/>
<rect x="524.429" y="518.62" width="176.205" height="29.4598" rx="5" transform="rotate(87.374 524.429 518.62)" fill="white"/>
<rect x="582.429" y="517" width="175.687" height="31.3038" rx="5" transform="rotate(87.374 582.429 517)" fill="white"/>
<rect x="656.271" y="513" width="175.687" height="31.3038" rx="5" transform="rotate(87.374 656.271 513)" fill="white"/>
<rect x="712.495" y="509.311" width="175.885" height="21.5759" rx="5" transform="rotate(87.374 712.495 509.311)" fill="white"/>
<rect x="770.553" y="508" width="88.2679" height="21.5759" rx="5" transform="rotate(87.374 770.553 508)" fill="white"/>
<rect x="826.174" y="507.107" width="178.83" height="23.9453" rx="5" transform="rotate(87.6321 826.174 507.107)" fill="white"/>
<rect x="875.925" y="506" width="178.83" height="23.9453" rx="5" transform="rotate(87.6321 875.925 506)" fill="white"/>
<rect x="925.925" y="503" width="178.83" height="23.9453" rx="5" transform="rotate(87.6321 925.925 503)" fill="white"/>
<rect x="975.925" y="502" width="178.83" height="23.9453" rx="5" transform="rotate(87.6321 975.925 502)" fill="white"/>
<rect x="1025.92" y="501" width="178.83" height="23.9453" rx="5" transform="rotate(87.6321 1025.92 501)" fill="white"/>
<rect x="774.553" y="618" width="70.3322" height="21.5759" rx="5" transform="rotate(87.374 774.553 618)" fill="white"/>
<rect x="664.878" y="217" width="235.219" height="40.9214" rx="5" transform="rotate(87.374 664.878 217)" fill="white"/>
<path d="M476 293H458L454.5 255.5L471 240L580 235L595.5 249L597.5 316L582 332L471 335L458 320.5V311.5L476 309.5L482.5 316C511.5 315.167 570.3 313.6 573.5 314C576.7 314.4 579.167 310.167 580 308C579.5 293.333 578.3 263.3 577.5 260.5C576.7 257.7 573.167 256 571.5 255.5L479 258.5L474.5 264L476 293Z" fill="white" stroke="white" stroke-width="6"/>
<rect x="176" y="429.872" width="37.9179" height="24.9247" rx="5" transform="rotate(-3.00537 176 429.872)" fill="white"/>
<rect x="248" y="426.988" width="37.9179" height="24.9247" rx="5" transform="rotate(-3.00537 248 426.988)" fill="white"/>
<path d="M600 367.5L467.5 371L471 457L602.5 451.5L600 367.5Z" fill="white" stroke="white" stroke-width="6"/>
<path d="M1061 227.5L1102 209.5L1111.5 225.5L1062.27 239.5M1062.27 239.5L1067 252L1126 232.5L1111.5 193L1053 215L1062.27 239.5Z" stroke="white" stroke-width="6"/>
<circle cx="258.5" cy="609.5" r="9" stroke="white" stroke-width="3"/>
<circle cx="286.5" cy="587.5" r="9" stroke="white" stroke-width="3"/>
<circle cx="327.5" cy="572.5" r="9" stroke="white" stroke-width="3"/>
<rect x="408.054" y="547.778" width="13" height="28.0952" transform="rotate(-3.19077 408.054 547.778)" stroke="black" stroke-width="2"/>
<rect x="410.054" y="602.778" width="13" height="28.0952" transform="rotate(-3.19077 410.054 602.778)" stroke="black" stroke-width="2"/>
<rect x="412.054" y="658.778" width="13" height="28.0952" transform="rotate(-3.19077 412.054 658.778)" stroke="black" stroke-width="2"/>
</svg>
